<svg id="zbXCQODVI" viewBox="0 0 369.89473684210526 103.10526315789473" height="103.10526315789473" width="369.89473684210526" style="width: 369.895px; height: 103.105px; position: absolute; top: 50%; left: 50%; z-index: 0; cursor: pointer; overflow: visible; transform: translate(-50%, -50%) scale(0.50609);">
  <defs id="SvgjsDefs1013"></defs>
  <g id="SvgjsG1014" featurekey="HKaMnE-0" transform="matrix(1.1748121215354448,0,0,1.1748121215354448,-6.687971136660433,-1.6879711366604333)" fill="#ffffff">
    <path xmlns="http://www.w3.org/2000/svg" d="M48,42.5c0.3,1,0.6,2,0.8,2.9C48.5,44.5,48.2,43.6,48,42.5z M43.2,39.3c-1.4-1.7-3.1-3.3-5-4.6c0.8,2.2,2,4.2,3.2,6  c1.4,1,2.7,2,3.8,3.1C44.5,42.4,43.8,41,43.2,39.3z M32.2,42.6c1.8,1.5,3.8,2.7,5.8,3.6c1.7,0.1,3.3,0.4,4.8,0.8  c-1.3-0.8-2.6-1.7-3.9-2.8C36.8,43.4,34.5,42.8,32.2,42.6z M39.3,43.2c1.6,0.6,3.1,1.3,4.4,2c-1-1.1-2.1-2.4-3.1-3.8  c-1.8-1.2-3.8-2.4-6-3.2C36.1,40.2,37.7,41.8,39.3,43.2z M45.2,50c-0.9,0-1.9,0-2.9,0C43.3,50,44.3,50,45.2,50z M48,57.5  c0.3-1,0.6-2,0.8-2.9C48.5,55.5,48.2,56.4,48,57.5z M42.5,48c1,0.3,2,0.6,2.9,0.8C44.5,48.5,43.6,48.2,42.5,48z M47.6,45.8  c-0.4-0.8-0.9-1.6-1.5-2.5C46.6,44.2,47.1,45.1,47.6,45.8z M47.2,37.7c0.7,1.6,1.3,3.1,1.7,4.5c0.1-1.5,0.2-3.1,0.5-4.8  c-0.4-2.1-1-4.3-2-6.5C47.1,33.2,47.1,35.5,47.2,37.7z M52,42.5c-0.3,1-0.6,2-0.8,2.9C51.5,44.5,51.8,43.6,52,42.5z M51.2,54.6  c0.2,0.9,0.5,1.8,0.8,2.9C51.8,56.4,51.5,55.5,51.2,54.6z M50,23.6c-0.8,1.6-1.6,3.3-2.1,5.2c0,0.2-0.1,0.3-0.1,0.5  c1,1.9,1.7,3.8,2.2,5.7c0.5-1.9,1.2-3.8,2.2-5.7c0-0.2-0.1-0.3-0.1-0.5C51.6,26.9,50.8,25.2,50,23.6z M50,54.8c0,0.9,0,1.9,0,2.9  C50,56.7,50,55.7,50,54.8z M50,42.3c0,1.1,0,2,0,2.9C50,44.3,50,43.3,50,42.3z M28.9,46.5c0.2,0.1,0.3,0.2,0.5,0.2  c2.1-0.5,4.1-0.6,6.1-0.6c-1.7-1-3.4-2.1-4.9-3.6c-0.2,0-0.4,0-0.5,0c-1.9,0-3.8,0.3-5.5,0.7C25.8,44.4,27.3,45.5,28.9,46.5z   M32.6,62.4c0.2,0,0.3-0.1,0.5-0.2c1.1-1.8,2.5-3.4,3.9-4.8c-1.9,0.5-3.9,0.9-6,1c-0.1,0.1-0.3,0.2-0.4,0.4  c-1.4,1.4-2.5,2.8-3.4,4.4C28.9,63.1,30.8,62.9,32.6,62.4z M37.4,49.5c1.7-0.3,3.3-0.4,4.8-0.5c-1.4-0.4-3-1-4.5-1.7  c-2.2-0.2-4.5-0.1-6.8,0.2C33,48.5,35.2,49.1,37.4,49.5z M30,57.5c0.2,0,0.4,0,0.5,0c1.6-1.4,3.2-2.6,5-3.6c-0.1,0-0.1,0-0.2,0  c-1.9,0-3.9-0.2-5.8-0.6c-0.2,0.1-0.3,0.2-0.5,0.3c-1.7,1-3.1,2.1-4.4,3.3C26.2,57.2,28.1,57.5,30,57.5z M43.2,60.7  c0.6-1.6,1.3-3.1,2-4.4c-1.1,1-2.4,2.1-3.8,3.1c-1.2,1.8-2.4,3.8-3.2,6C40.2,63.9,41.8,62.3,43.2,60.7z M44.5,44.5  c0.7,0.8,1.4,1.5,2.1,2.1C46,46,45.3,45.3,44.5,44.5z M46.6,53.4c-0.7,0.6-1.4,1.3-2.1,2.1C45.3,54.7,46,54,46.6,53.4z M28.7,52.1  c0.2,0,0.3,0.1,0.5,0.1c1.9-1,3.8-1.7,5.7-2.2c-1.9-0.5-3.8-1.2-5.7-2.2c-0.2,0-0.4,0.1-0.5,0.1c-1.8,0.5-3.6,1.2-5.2,2.1  C25.2,50.8,26.9,51.6,28.7,52.1z M43.8,54.8c-1.3,0.7-2.8,1.4-4.4,2c-1.7,1.4-3.3,3.1-4.6,5c2.2-0.8,4.2-2,6-3.2  C41.7,57.1,42.7,55.9,43.8,54.8z M42.5,52c1-0.2,2-0.5,2.9-0.8C44.5,51.4,43.5,51.7,42.5,52z M38.8,55.9c1.3-1.1,2.7-2.1,3.9-2.8  c-1.5,0.3-3.1,0.6-4.8,0.8c-2,0.9-3.9,2.1-5.8,3.6C34.5,57.2,36.8,56.6,38.8,55.9z M37.7,52.8c1.6-0.7,3.1-1.3,4.5-1.7  c-1.5-0.1-3.1-0.2-4.8-0.5c-2.1,0.4-4.4,1-6.5,2C33.2,52.9,35.5,52.9,37.7,52.8z M43.3,53.9c0.9-0.5,1.8-1,2.5-1.5  C45.1,52.8,44.2,53.3,43.3,53.9z M32.6,37.6c-1.8-0.5-3.7-0.7-5.5-0.8c1,1.5,2.1,3,3.4,4.4c0.1,0.1,0.3,0.3,0.4,0.4  c2.1,0.1,4.1,0.4,6,1c-1.4-1.4-2.7-3-3.9-4.8C33,37.7,32.8,37.6,32.6,37.6z M50.5,37.4c0.3,1.7,0.5,3.3,0.5,4.8c0.4-1.4,1-3,1.7-4.5  c0.2-2.2,0.1-4.5-0.2-6.8C51.5,33,50.9,35.2,50.5,37.4z M43.3,46.1c0.9,0.6,1.8,1.1,2.6,1.5C45.1,47.1,44.2,46.6,43.3,46.1z   M55.9,38.8c0.7-2,1.3-4.3,1.5-6.6c-1.5,1.8-2.7,3.8-3.6,5.8c-0.1,1.7-0.4,3.3-0.8,4.8C53.8,41.5,54.8,40.1,55.9,38.8z M71.1,46.5  c1.7-1,3.1-2.1,4.4-3.3c-1.8-0.4-3.6-0.7-5.5-0.7c-0.2,0-0.4,0-0.5,0c-1.6,1.4-3.2,2.6-4.9,3.6c2,0,4,0.2,6.1,0.6  C70.8,46.7,70.9,46.6,71.1,46.5z M53.4,46.6c0.7-0.6,1.4-1.3,2.1-2.1C54.7,45.3,54,46,53.4,46.6z M62.6,50.5  c-1.7,0.3-3.3,0.5-4.8,0.5c1.4,0.4,3,1,4.5,1.7c2.2,0.2,4.5,0.1,6.8-0.2C67,51.5,64.7,50.9,62.6,50.5z M67.4,37.6  c-0.2,0-0.3,0.1-0.5,0.2c-1.1,1.8-2.5,3.4-3.9,4.8c1.9-0.5,3.9-0.9,6-1c0.1-0.1,0.3-0.2,0.4-0.4c1.4-1.4,2.5-2.8,3.4-4.4  C71.1,36.9,69.2,37.1,67.4,37.6z M56.8,39.3c-0.6,1.6-1.3,3.1-2,4.4c1.1-1,2.4-2.1,3.8-3.1c1.2-1.8,2.4-3.8,3.2-6  C59.8,36.1,58.2,37.7,56.8,39.3z M67.8,57.4c-1.8-1.5-3.8-2.7-5.8-3.6c-1.7-0.1-3.3-0.4-4.8-0.8c1.3,0.8,2.6,1.7,3.9,2.8  C63.2,56.6,65.5,57.2,67.8,57.4z M56.2,45.2c1.3-0.7,2.8-1.4,4.4-2c1.7-1.4,3.3-3.1,4.6-5c-2.2,0.8-4.2,2-6,3.2  C58.3,42.9,57.3,44.1,56.2,45.2z M62.3,47.2c-1.6,0.7-3.1,1.3-4.5,1.7c1.5,0.1,3.1,0.2,4.8,0.5c2.1-0.4,4.3-1,6.5-2  C66.8,47.1,64.5,47.1,62.3,47.2z M54.6,51.2c0.9,0.3,1.8,0.5,2.9,0.8C56.5,51.7,55.5,51.4,54.6,51.2z M54.8,50c0.9,0,1.9,0,2.9,0  C56.7,50,55.7,50,54.8,50z M57.5,48c-1,0.2-2,0.5-2.9,0.8C55.5,48.6,56.5,48.3,57.5,48z M67.8,42.6c-2.4,0.2-4.6,0.8-6.6,1.5  c-1.3,1.1-2.6,2-3.9,2.8c1.5-0.3,3.1-0.6,4.8-0.8C64,45.3,66,44.1,67.8,42.6z M56.7,53.9c-0.9-0.6-1.8-1.1-2.6-1.5  C54.9,52.9,55.8,53.4,56.7,53.9z M56.7,46.1c-0.9,0.5-1.8,1-2.5,1.5C54.9,47.2,55.8,46.7,56.7,46.1z M53.5,28.9  c-0.1,0.2-0.2,0.3-0.2,0.5c0.5,2.1,0.6,4.1,0.6,6.1c1-1.7,2.1-3.4,3.6-4.9c0-0.2,0-0.4,0-0.5c0-1.9-0.3-3.8-0.7-5.5  C55.6,25.8,54.5,27.3,53.5,28.9z M63.5,32.4c1.8-1,3.7-1.7,5.5-2.2c0.6-2.1,0.8-4.3,0.9-6.2c-1.8,0.6-3.8,1.4-5.7,2.5  C64.2,28.4,64,30.4,63.5,32.4z M69.8,31c-0.5,1.8-1.2,3.7-2.2,5.5c2-0.5,4-0.7,5.9-0.7c1.1-1.9,1.9-3.9,2.5-5.7  C74.1,30.2,72,30.4,69.8,31z M60.6,39.4c1.7-1,3.6-1.9,5.6-2.5c0.1-0.2,0.2-0.3,0.3-0.5c1-1.7,1.7-3.4,2.2-5.1  c-1.7,0.5-3.5,1.2-5.1,2.2c-0.2,0.1-0.3,0.2-0.5,0.3C62.5,35.8,61.6,37.7,60.6,39.4z M42.6,32.2c0.2,2.4,0.8,4.6,1.5,6.6  c1.1,1.3,2,2.6,2.8,3.9c-0.3-1.5-0.6-3.1-0.8-4.8C45.3,36,44.1,34,42.6,32.2z M74.1,36.8c-1,1.6-2.2,3.3-3.6,4.8  c2.1,0,4,0.3,5.9,0.8c1.6-1.6,2.8-3.3,3.9-4.9C78.4,37.1,76.3,36.8,74.1,36.8z M53.9,43.3c-0.6,0.9-1.1,1.8-1.5,2.6  C52.9,45.1,53.4,44.2,53.9,43.3z M58.5,31c-0.1,2.1-0.4,4.1-1,6c1.4-1.4,3-2.7,4.8-3.9c0-0.2,0.1-0.3,0.2-0.5  c0.5-1.8,0.7-3.7,0.8-5.5c-1.5,1-3,2.1-4.4,3.4C58.7,30.7,58.6,30.8,58.5,31z M82.5,45.7c-1.7-0.9-3.7-1.7-5.8-2.3  c-1.4,1.3-2.9,2.6-4.7,3.7c2,0.6,3.8,1.4,5.5,2.3C79.4,48.3,81.1,47,82.5,45.7z M67.4,62.4c1.8,0.5,3.7,0.7,5.5,0.8  c-1-1.5-2.1-3-3.4-4.4c-0.1-0.1-0.3-0.3-0.4-0.4c-2.1-0.1-4.1-0.4-6-1c1.4,1.4,2.7,3,3.9,4.8C67,62.3,67.2,62.4,67.4,62.4z   M55.5,55.5c-0.7-0.8-1.4-1.5-2.1-2.1C54,54,54.7,54.7,55.5,55.5z M61.7,65.3c-0.8-2.2-2-4.2-3.2-6c-1.4-1-2.7-2-3.8-3.1  c0.7,1.3,1.4,2.8,2,4.4C58.2,62.3,59.8,63.9,61.7,65.3z M60.7,56.8c-1.6-0.6-3.1-1.3-4.4-2c1,1.1,2.1,2.4,3.1,3.8  c1.8,1.2,3.8,2.4,6,3.2C63.9,59.8,62.3,58.2,60.7,56.8z M71.3,47.9c-0.2,0-0.4-0.1-0.5-0.1c-1.9,1-3.8,1.7-5.7,2.2  c1.9,0.5,3.8,1.2,5.7,2.2c0.2,0,0.3-0.1,0.5-0.1c1.8-0.5,3.6-1.2,5.2-2.1C74.8,49.2,73.1,48.4,71.3,47.9z M71.1,53.5  c-0.2-0.1-0.3-0.2-0.5-0.3c-2,0.4-4,0.6-5.8,0.6c-0.1,0-0.1,0-0.2,0c1.7,1,3.4,2.2,5,3.6c0.2,0,0.4,0,0.5,0c1.9,0,3.8-0.3,5.5-0.7  C74.2,55.6,72.7,54.5,71.1,53.5z M70,22.9c0.1-3.2-0.2-5.8-0.4-6.9c-1,0.4-3.4,1.4-6.1,3.1c0.4,1.9,0.7,4,0.8,6.2  C66.2,24.3,68.2,23.5,70,22.9z M35.8,25.3c0.1-2.2,0.4-4.4,0.8-6.2c-2.7-1.7-5.1-2.7-6.1-3.1c-0.2,1.1-0.5,3.6-0.4,6.9  C31.8,23.5,33.8,24.3,35.8,25.3z M45,16.7c-2.2-2.3-4.2-3.9-5.1-4.6c-0.4,1-1.4,3.4-2.2,6.5c1.6,1,3.3,2.3,4.9,3.9  C43.3,20.4,44.1,18.4,45,16.7z M42.3,23.6c-1.6-1.6-3.3-2.8-4.9-3.9c-0.4,1.9-0.7,4-0.7,6.2c1.6,1,3.3,2.2,4.8,3.6  C41.6,27.5,41.9,25.5,42.3,23.6z M29.9,29.9c-0.5-2.2-0.8-4.3-0.9-6.2c-3.1-0.9-5.6-1.3-6.7-1.4c0.1,1.1,0.5,3.7,1.4,6.7  C25.6,29.1,27.7,29.3,29.9,29.9z M25.3,35.8c-1.1-2-1.9-3.9-2.5-5.8c-3.2-0.1-5.8,0.2-6.9,0.4c0.4,1,1.4,3.4,3.1,6.1  C21,36.1,23.1,35.8,25.3,35.8z M21.5,50c-1.9-1.2-3.6-2.5-5-3.8c-2.8,1.5-4.9,3.1-5.7,3.8c0.9,0.7,2.9,2.3,5.7,3.8  C18,52.5,19.6,51.2,21.5,50z M22.5,57.4c-2.2-0.6-4.1-1.5-5.8-2.3c-2.3,2.2-3.9,4.2-4.6,5.1c1,0.4,3.4,1.4,6.5,2.2  C19.7,60.7,21,59,22.5,57.4z M43.2,24.5c-0.4,1.8-0.7,3.6-0.7,5.5c0,0.2,0,0.4,0,0.5c1.4,1.6,2.6,3.2,3.6,4.9c0-2,0.2-4,0.6-6.1  c-0.1-0.2-0.2-0.3-0.2-0.5C45.5,27.3,44.4,25.8,43.2,24.5z M58.5,29.5c1.5-1.4,3.1-2.6,4.8-3.6c0-2.2-0.3-4.3-0.7-6.2  c-1.6,1.1-3.3,2.4-4.9,3.9C58.1,25.5,58.4,27.5,58.5,29.5z M62.3,18.6c-0.7-3.1-1.7-5.5-2.2-6.5c-0.9,0.6-2.9,2.2-5.1,4.6  c0.9,1.7,1.7,3.7,2.3,5.8C59,21,60.7,19.7,62.3,18.6z M47.1,28c0.6-2,1.4-3.8,2.3-5.5c-1.1-1.9-2.4-3.6-3.7-5  c-0.9,1.7-1.7,3.7-2.3,5.8C44.8,24.7,46,26.3,47.1,28z M77.7,22.3c-1.1,0.1-3.7,0.5-6.7,1.4c-0.1,1.9-0.4,4-0.9,6.2  c2.2-0.5,4.3-0.8,6.2-0.9C77.3,25.9,77.6,23.4,77.7,22.3z M52.9,28c1.1-1.8,2.3-3.3,3.7-4.7c-0.6-2.1-1.4-4.1-2.3-5.8  c-1.3,1.4-2.6,3.1-3.7,5C51.5,24.2,52.3,26,52.9,28z M53.8,16.5c-1.5-2.8-3.1-4.9-3.8-5.7c-0.7,0.9-2.3,2.9-3.8,5.7  c1.3,1.4,2.6,3.1,3.8,5C51.2,19.6,52.5,18,53.8,16.5z M37.7,81.4c0.7,3.1,1.7,5.5,2.2,6.5c0.9-0.6,2.9-2.2,5.1-4.6  c-0.9-1.7-1.7-3.7-2.3-5.8C41,79,39.3,80.3,37.7,81.4z M25.4,64.2c-2.2-0.1-4.4-0.3-6.2-0.8c-1.7,2.7-2.7,5.1-3.1,6.1  c1.1,0.2,3.6,0.5,6.9,0.4C23.5,68.2,24.3,66.2,25.4,64.2z M52.9,72c-0.6,2-1.4,3.8-2.3,5.5c1.1,1.9,2.4,3.6,3.7,5  c0.9-1.7,1.7-3.7,2.3-5.8C55.2,75.3,54,73.7,52.9,72z M55,83.3c2.2,2.3,4.2,3.9,5.1,4.6c0.4-1,1.4-3.4,2.2-6.5  c-1.6-1-3.3-2.3-4.9-3.9C56.7,79.6,55.9,81.6,55,83.3z M57.7,76.4c1.6,1.6,3.3,2.8,4.9,3.9c0.4-1.9,0.7-4,0.7-6.2  c-1.6-1-3.3-2.2-4.8-3.6C58.4,72.5,58.1,74.5,57.7,76.4z M83.3,55c-1.7,0.9-3.7,1.7-5.8,2.3c1.5,1.6,2.8,3.3,3.9,4.9  c3.1-0.7,5.5-1.7,6.5-2.2C87.2,59.3,85.7,57.2,83.3,55z M70.1,70.1c0.5,2.2,0.8,4.3,0.9,6.2c3.1,0.9,5.6,1.3,6.7,1.4  c-0.1-1.1-0.5-3.7-1.4-6.7C74.4,70.9,72.3,70.6,70.1,70.1z M74.7,64.2c1.1,2,1.9,3.9,2.5,5.8c3.2,0.1,5.8-0.2,6.9-0.4  c-0.4-1-1.4-3.4-3.1-6.1C79,63.9,76.9,64.2,74.7,64.2z M64.2,74.7c-0.1,2.2-0.4,4.4-0.8,6.2c2.7,1.7,5.1,2.7,6.1,3.1  c0.2-1.1,0.5-3.6,0.4-6.9C68.2,76.5,66.2,75.7,64.2,74.7z M30,77.1c-0.1,3.2,0.2,5.8,0.4,6.9c1-0.4,3.4-1.4,6.1-3.1  c-0.4-1.9-0.7-4-0.8-6.2C33.8,75.7,31.8,76.5,30,77.1z M22.3,77.7c1.1-0.1,3.7-0.5,6.7-1.4c0.1-1.9,0.4-4,0.9-6.2  c-2.2,0.5-4.3,0.8-6.2,0.9C22.7,74.1,22.4,76.6,22.3,77.7z M41.5,70.5c-1.5,1.4-3.1,2.6-4.8,3.6c0,2.2,0.3,4.3,0.7,6.2  c1.6-1.1,3.3-2.4,4.9-3.9C41.9,74.5,41.6,72.5,41.5,70.5z M47.1,72c-1.1,1.8-2.3,3.3-3.7,4.7c0.6,2.1,1.4,4.1,2.3,5.8  c1.3-1.4,2.6-3.1,3.7-5C48.5,75.8,47.7,74,47.1,72z M74.7,35.8c2.2,0.1,4.4,0.4,6.2,0.8c1.7-2.7,2.7-5.1,3.1-6.1  c-1.1-0.2-3.6-0.5-6.9-0.4C76.5,31.8,75.7,33.8,74.7,35.8z M46.2,83.5c1.5,2.8,3.1,4.9,3.8,5.7c0.7-0.9,2.3-2.9,3.8-5.7  c-1.3-1.4-2.6-3.1-3.8-5C48.8,80.4,47.5,82,46.2,83.5z M16.7,45c1.7-0.9,3.7-1.7,5.8-2.3c-1.5-1.6-2.8-3.3-3.9-4.9  c-3.1,0.7-5.5,1.7-6.5,2.2C12.8,40.7,14.3,42.8,16.7,45z M30.2,69c0.5-1.8,1.2-3.7,2.2-5.5c-2,0.5-4,0.7-5.9,0.7  c-1.1,1.9-1.9,3.9-2.5,5.7C25.9,69.8,28,69.6,30.2,69z M36.5,67.6c-1.8,1-3.7,1.7-5.5,2.3C30.4,72,30.2,74.1,30,76  c1.8-0.6,3.8-1.4,5.7-2.5C35.8,71.6,36,69.6,36.5,67.6z M25.9,63.2c1-1.6,2.2-3.3,3.6-4.8c-2.1,0-4-0.3-5.9-0.8  c-1.6,1.6-2.8,3.3-3.9,4.9C21.6,62.9,23.7,63.2,25.9,63.2z M46.5,71.1c0.1-0.2,0.2-0.3,0.2-0.5c-0.5-2.1-0.6-4.1-0.6-6.1  c-1,1.7-2.1,3.4-3.6,4.9c0,0.2,0,0.4,0,0.5c0,1.9,0.3,3.8,0.7,5.5C44.4,74.2,45.5,72.7,46.5,71.1z M23.3,56.5  c1.4-1.3,2.9-2.6,4.7-3.7c-2-0.6-3.8-1.4-5.5-2.3c-1.9,1.1-3.6,2.4-5,3.7C19.2,55.1,21.2,56,23.3,56.5z M41.5,69  c0.1-2.1,0.4-4.1,1-6c-1.4,1.4-3,2.7-4.8,3.9c0,0.2-0.1,0.3-0.2,0.5c-0.5,1.8-0.7,3.7-0.8,5.5c1.5-1,3-2.1,4.4-3.4  C41.3,69.3,41.4,69.2,41.5,69z M44.1,61.2c-0.7,2-1.3,4.3-1.5,6.6c1.5-1.8,2.7-3.8,3.6-5.8c0.1-1.7,0.4-3.3,0.8-4.8  C46.2,58.5,45.2,59.9,44.1,61.2z M39.4,60.6c-1.7,1-3.6,1.9-5.6,2.5c-0.1,0.2-0.2,0.3-0.3,0.5c-1,1.7-1.7,3.4-2.2,5.1  c1.7-0.5,3.5-1.2,5.1-2.2c0.2-0.1,0.3-0.2,0.5-0.3C37.5,64.2,38.4,62.3,39.4,60.6z M31.3,31.3c0.5,1.7,1.2,3.5,2.2,5.1  c0.1,0.2,0.2,0.3,0.3,0.5c2,0.6,3.9,1.5,5.6,2.5c-1-1.7-1.9-3.6-2.5-5.6c-0.2-0.1-0.3-0.2-0.5-0.3C34.8,32.5,33,31.8,31.3,31.3z   M22.5,49.4c1.7-0.9,3.5-1.7,5.5-2.3c-1.8-1.1-3.3-2.3-4.7-3.7c-2.1,0.6-4.1,1.4-5.8,2.3C18.9,47,20.6,48.3,22.5,49.4z M30,24  c0.1,1.9,0.4,4,0.9,6.2c1.8,0.5,3.7,1.2,5.5,2.2c-0.5-2-0.7-4-0.7-5.9C33.8,25.4,31.9,24.6,30,24z M41.2,30.6  c-1.4-1.4-2.8-2.5-4.4-3.4c0.1,1.8,0.3,3.7,0.8,5.5c0,0.2,0.1,0.3,0.2,0.5c1.8,1.1,3.4,2.5,4.8,3.9c-0.5-1.9-0.9-3.9-1-6  C41.4,30.8,41.3,30.7,41.2,30.6z M26.5,35.8c1.9,0,3.9,0.2,5.9,0.7c-1-1.8-1.7-3.7-2.2-5.5C28,30.4,25.9,30.2,24,30  C24.6,31.9,25.4,33.8,26.5,35.8z M23.6,42.3c1.9-0.5,3.8-0.8,5.9-0.8c-1.4-1.5-2.6-3.1-3.6-4.7c-2.2,0-4.3,0.3-6.2,0.7  C20.8,39.1,22.1,40.8,23.6,42.3z M76.4,57.7c-1.9,0.5-3.8,0.8-5.9,0.8c1.4,1.5,2.6,3.1,3.6,4.8c2.2,0,4.3-0.3,6.2-0.7  C79.2,60.9,77.9,59.3,76.4,57.7z M73.5,64.2c-1.9,0-3.9-0.2-5.9-0.7c1,1.8,1.7,3.7,2.2,5.5c2.1,0.6,4.3,0.8,6.2,0.9  C75.4,68.1,74.6,66.2,73.5,64.2z M46.1,56.7c0.6-0.9,1.1-1.8,1.5-2.6C47.1,54.9,46.6,55.8,46.1,56.7z M58.8,69.4  c1.4,1.4,2.8,2.5,4.4,3.4c-0.1-1.8-0.3-3.7-0.8-5.5c0-0.2-0.1-0.3-0.2-0.5c-1.8-1.1-3.4-2.5-4.8-3.9c0.5,1.9,0.9,3.9,1,6  C58.6,69.2,58.7,69.3,58.8,69.4z M68.7,68.7c-0.5-1.7-1.2-3.5-2.2-5.1c-0.1-0.2-0.2-0.3-0.3-0.5c-2-0.6-3.9-1.5-5.6-2.5  c1,1.7,1.9,3.6,2.5,5.6c0.2,0.1,0.3,0.2,0.5,0.3C65.2,67.5,67,68.2,68.7,68.7z M89.2,50c-0.9-0.7-2.9-2.3-5.7-3.8  c-1.4,1.3-3.1,2.6-5,3.8c1.9,1.2,3.6,2.5,5,3.8C86.3,52.3,88.4,50.7,89.2,50z M77.5,50.6c-1.7,0.9-3.5,1.7-5.5,2.3  c1.8,1.1,3.3,2.3,4.7,3.7c2.1-0.6,4.1-1.4,5.8-2.3C81.1,53,79.4,51.7,77.5,50.6z M77.5,42.6c2.2,0.6,4.1,1.5,5.8,2.3  c2.3-2.2,3.9-4.2,4.6-5.1c-1-0.4-3.4-1.4-6.5-2.2C80.3,39.3,79,41,77.5,42.6z M70,76c-0.1-1.9-0.4-4-0.9-6.2  c-1.8-0.5-3.7-1.3-5.5-2.3c0.5,2,0.7,4,0.7,5.9C66.2,74.6,68.1,75.4,70,76z M50,76.4c0.8-1.6,1.6-3.3,2.1-5.2c0-0.2,0.1-0.3,0.1-0.5  c-1-1.9-1.7-3.8-2.2-5.7c-0.5,1.9-1.2,3.8-2.2,5.7c0,0.2,0.1,0.3,0.1,0.5C48.4,73.1,49.2,74.8,50,76.4z M52.8,62.3  c-0.7-1.6-1.3-3.1-1.7-4.5c-0.1,1.5-0.2,3.1-0.5,4.8c0.4,2.1,1,4.3,2,6.5C52.9,66.8,52.9,64.5,52.8,62.3z M49.5,62.6  c-0.3-1.7-0.5-3.3-0.5-4.8c-0.4,1.4-1,3-1.7,4.5c-0.2,2.2-0.1,4.5,0.2,6.8C48.5,67,49.1,64.8,49.5,62.6z M57.4,67.8  c-0.2-2.4-0.8-4.6-1.5-6.6c-1.1-1.3-2-2.6-2.8-3.9c0.3,1.5,0.6,3.1,0.8,4.8C54.7,64,55.9,66,57.4,67.8z M56.8,75.5  c0.4-1.8,0.7-3.6,0.7-5.5c0-0.2,0-0.4,0-0.5c-1.4-1.6-2.6-3.2-3.6-4.9c0,2-0.2,4-0.6,6.1c0.1,0.2,0.2,0.3,0.2,0.5  C54.5,72.7,55.6,74.2,56.8,75.5z M52.4,54.2c0.4,0.8,0.9,1.6,1.5,2.5C53.4,55.8,52.9,54.9,52.4,54.2z"></path></g><g id="SvgjsG1015" featurekey="J3GnXt-0" transform="matrix(3.920565998215062,0,0,3.920565998215062,104.86457201444615,10.867637480037324)" fill="#ffffff">
    <path d="M6.9 5.84 c1.3867 0 2.4734 0.34666 3.26 1.04 s1.18 1.6667 1.18 2.92 c0 0.94666 -0.32334 1.7733 -0.97 2.48 s-1.4767 1.1267 -2.49 1.26 l-0.02 0 l4.02 6.46 l-2.4 0 l-3.6 -6.24 l-2.14 0 l0 6.24 l-1.92 0 l0 -14.16 l5.08 0 z M6.34 12.08 c1 0 1.7433 -0.18336 2.23 -0.55002 s0.73 -0.94332 0.73 -1.73 c0 -1.52 -0.98666 -2.28 -2.96 -2.28 l-2.6 0 l0 4.56 l2.6 0 z M15.38 10.52 l0 5.68 c0 0.74666 0.19666 1.3267 0.59 1.74 s0.91668 0.62 1.57 0.62 c0.84 0 1.49 -0.27666 1.95 -0.83 s0.69 -1.3033 0.69 -2.25 l0 -4.96 l1.8 0 l0 9.48 l-1.8 0 l0 -1.46 l-0.04 0 c-0.25334 0.53334 -0.66668 0.95 -1.24 1.25 s-1.2 0.45 -1.88 0.45 c-1.0533 0 -1.89 -0.32666 -2.51 -0.98 s-0.93 -1.5067 -0.93 -2.56 l0 -6.18 l1.8 0 z M27.900000000000002 10.28 c0.72 0 1.3633 0.13338 1.93 0.40004 s1.0033 0.65332 1.31 1.16 l-1.4 1.06 c-0.53334 -0.62666 -1.18 -0.94 -1.94 -0.94 c-0.45334 0 -0.83 0.1 -1.13 0.3 s-0.45 0.45334 -0.45 0.76 c0 0.66666 0.62 1.12 1.86 1.36 c1.2133 0.22666 2.07 0.56 2.57 1 s0.75 1.0667 0.75 1.88 c0 0.92 -0.35 1.6433 -1.05 2.17 s-1.6367 0.79666 -2.81 0.81 c-0.88 0 -1.6033 -0.13666 -2.17 -0.41 s-1.0567 -0.69668 -1.47 -1.27 l1.36 -1.12 c0.72 0.74666 1.4867 1.12 2.3 1.12 c0.53334 0 0.98668 -0.10666 1.36 -0.32 s0.56 -0.50668 0.56 -0.88002 c0 -0.65334 -0.6 -1.1067 -1.8 -1.36 c-1.3333 -0.26666 -2.23 -0.62332 -2.69 -1.07 s-0.69 -1.0233 -0.69 -1.73 c0 -0.88 0.34 -1.5833 1.02 -2.11 s1.54 -0.79666 2.58 -0.81 z M35.38000000000001 4.880000000000001 l0.000019531 7.1 l0.04 0 c0.25334 -0.53334 0.66334 -0.95 1.23 -1.25 s1.1967 -0.45 1.89 -0.45 c1.0533 0 1.89 0.32 2.51 0.96 s0.93 1.5 0.93 2.58 l0 6.18 l-1.8 0 l0 -5.66 c0 -0.73334 -0.19 -1.3133 -0.57 -1.74 s-0.91 -0.64 -1.59 -0.64 c-0.84 0 -1.4867 0.27334 -1.94 0.82 s-0.68668 1.3 -0.70002 2.26 l0 4.96 l-1.8 0 l0 -15.12 l1.8 0 z M47.080000000000005 5.84 l0 6.12 l0.16 0 l6.26 -6.12 l2.68 0 l-6.84 6.54 l7.3 7.62 l-2.8 0 l-6.6 -7.08 l-0.16 0 l0 7.08 l-1.92 0 l0 -14.16 l1.92 0 z M58.7 5.800000000000001 c0.36 0 0.67002 0.13002 0.93002 0.39002 s0.39 0.57 0.39 0.93 c0 0.37334 -0.13334 0.68668 -0.4 0.94002 s-0.57332 0.38 -0.91998 0.38 c-0.37334 0 -0.68668 -0.12666 -0.94002 -0.38 s-0.38 -0.56668 -0.38 -0.94002 s0.13334 -0.68668 0.4 -0.94002 s0.57332 -0.38 0.91998 -0.38 z M59.6 10.52 l0 9.48 l-1.8 0 l0 -9.48 l1.8 0 z M64.96000000000001 7.859999999999999 l-0.000019531 2.66 l2.58 0 l0 1.56 l-2.58 0 l0 4.56 c0 0.61334 0.08666 1.0867 0.26 1.42 s0.54 0.5 1.1 0.5 c0.53334 0 0.96 -0.09334 1.28 -0.28 l0 1.64 c-0.34666 0.18666 -0.89332 0.29332 -1.64 0.31998 c-0.72 0 -1.2767 -0.11 -1.67 -0.33 s-0.68 -0.52666 -0.86 -0.92 s-0.27 -1.01 -0.27 -1.85 l0 -5.06 l-2.08 0 l0 -1.56 l2.08 0 l0 -2.66 l1.8 0 z"></path>
  </g>
</svg>